<?xml version="1.0" standalone="no"?><!DOCTYPE svg PUBLIC "-//W3C//DTD SVG 1.1//EN" "http://www.w3.org/Graphics/SVG/1.1/DTD/svg11.dtd"><svg class="icon" width="200px" height="200.00px" viewBox="0 0 1024 1024" version="1.1" xmlns="http://www.w3.org/2000/svg"><path fill="#333333" d="M134.4 864c0 14.08 11.52 25.6 25.6 25.6h320c14.08 0 25.6-11.52 25.6-25.6v-132.48c58.24 55.68 135.68 121.6 191.36 144 22.4 9.6 46.72 14.08 71.04 14.08s48.64-4.48 71.04-14.08c22.4-9.6 42.88-23.04 60.16-40.32 17.28-17.28 30.72-37.76 40.32-60.16s14.08-46.72 14.08-71.04-4.48-48.64-14.08-70.4c-54.4-136.96-377.6-493.44-516.48-549.12C400.64 74.88 376.32 70.4 352 70.4s-48.64 4.48-71.04 14.08c-22.4 9.6-42.88 23.04-60.16 40.32-17.28 17.28-30.72 37.76-40.32 60.16S166.4 231.68 166.4 256s4.48 48.64 14.08 70.4c12.8 32 38.4 72.32 64 108.8-47.36 4.48-88.96 13.44-119.04 26.24-10.88 4.48-20.48 10.88-28.8 19.2-8.32 8.32-14.72 17.92-19.2 28.8-4.48 10.88-7.04 22.4-7.04 34.56 0 12.16 2.56 23.68 7.04 34.56 4.48 10.88 10.88 20.48 19.2 28.8 8.32 8.32 17.92 14.72 28.8 19.2 2.56 1.28 5.76 1.92 8.96 3.2V864z m93.44-556.8c-7.04-16-10.24-33.92-10.24-51.2s3.2-35.2 10.24-51.2c7.04-16.64 16.64-30.72 29.44-43.52 12.8-12.8 27.52-22.4 43.52-29.44 16.64-7.04 33.92-10.24 51.2-10.24 17.92 0 35.2 3.2 51.84 10.24 30.08 12.16 70.4 40.96 116.48 80l-58.24 58.24c-10.24 10.24-10.24 26.24 0 36.48 5.12 4.48 11.52 7.04 17.92 7.04s12.8-2.56 17.92-7.68l60.16-60.16c30.08 27.52 61.44 58.88 92.16 91.52l-60.8 60.8c-10.24 10.24-10.24 26.24 0 36.48 5.76 4.48 12.16 7.04 18.56 7.04s12.8-2.56 17.92-7.68l59.52-59.52c30.08 32.64 58.88 65.92 85.12 98.56l-53.12 53.12c-10.24 10.24-10.24 26.24 0 36.48 5.76 4.48 12.16 7.04 18.56 7.04s12.8-2.56 17.92-7.68l48.64-48.64c42.88 55.68 76.16 105.6 88.96 139.52 7.04 16 10.24 33.92 10.24 51.2 0 17.92-3.2 35.2-10.24 51.2-7.04 16.64-16.64 30.72-29.44 43.52-12.8 12.8-27.52 22.4-43.52 29.44-16.64 7.04-33.92 10.24-51.2 10.24-17.92 0-35.2-3.2-51.84-10.24-44.8-17.92-121.6-78.72-210.56-168.32v-30.08c3.2-0.64 5.76-1.92 8.96-3.2 10.88-4.48 20.48-10.88 28.8-19.2 8.32-8.32 14.72-17.92 19.2-28.8 4.48-10.88 7.04-22.4 7.04-34.56 0-12.16-2.56-23.68-7.04-34.56-4.48-10.88-10.88-20.48-19.2-28.8-8.32-8.32-17.92-14.72-28.8-19.2-45.44-18.56-115.84-29.44-194.56-29.44h-14.72c-37.76-51.84-65.28-96-76.8-124.8zM133.12 570.88c-3.84-3.84-6.4-7.68-8.32-12.16-1.92-4.48-3.2-9.6-3.2-14.72 0-5.12 1.28-10.24 3.2-14.72 1.92-4.48 4.48-8.96 8.32-12.16 3.84-3.84 7.68-6.4 12.8-8.32 33.92-14.08 87.68-23.04 148.48-24.96 8.32 0 17.28-0.64 26.24-0.64 71.04 0 136.32 9.6 174.72 25.6 4.48 1.92 8.96 4.48 12.8 8.32 3.84 3.84 6.4 7.68 8.32 12.16 1.92 4.48 3.2 9.6 3.2 14.72 0 5.12-1.28 10.24-3.2 14.72-1.92 4.48-4.48 8.96-8.32 12.16-3.84 3.84-7.68 6.4-12.16 8.32-5.76 1.92-10.88 3.2-16 3.2-14.08 0-25.6 11.52-25.6 25.6v230.4H185.6V608c0-14.08-11.52-25.6-25.6-25.6-5.12 0-10.24-1.28-14.72-3.2-4.48-1.92-8.96-4.48-12.16-8.32z" /></svg>