<?xml version="1.0" standalone="no"?><!DOCTYPE svg PUBLIC "-//W3C//DTD SVG 1.1//EN" "http://www.w3.org/Graphics/SVG/1.1/DTD/svg11.dtd"><svg class="icon" width="200px" height="200.00px" viewBox="0 0 1024 1024" version="1.1" xmlns="http://www.w3.org/2000/svg"><path fill="#333333" d="M132 903.584a24.024 24.024 0 0 1-24-24v-400a24 24 0 1 1 48 0v372.272l720-104.328V367.8a24 24 0 1 1 48 0v400.504a24.008 24.008 0 0 1-20.552 23.752l-768.008 111.28a23.776 23.776 0 0 1-3.44 0.248z"  /><path fill="#333333" d="M136.248 503.568a24 24 0 0 1-24-24v-9.312c0-7.688 3.688-14.912 9.912-19.432L494.72 180.72c3.64-2.64 7.952-4.2 12.44-4.512 5.72-0.4 141.816-8.968 278.288 49.168 85.2 36.296 133.28 117.592 135.288 121.04a24.016 24.016 0 0 1-41.488 24.16c-0.392-0.672-42.376-71.12-112.616-101.04-109.296-46.552-221.552-46.496-249.584-45.712L160.056 482.64a24.016 24.016 0 0 1-23.808 20.928z"  /><path fill="#333333" d="M136.232 504.88a16.008 16.008 0 0 1-2.304-31.832l763.744-111.768a15.96 15.96 0 0 1 18.144 13.504 16 16 0 0 1-13.504 18.152L138.568 504.712a16.56 16.56 0 0 1-2.336 0.168zM296 701.584c-46.32 0-84-37.68-84-84s37.68-84 84-84 84 37.68 84 84-37.688 84-84 84z m0-136c-28.672 0-52 23.328-52 52s23.328 52 52 52 52-23.328 52-52-23.328-52-52-52zM728 727.584c-55.144 0-100-44.856-100-100s44.856-100 100-100 100 44.856 100 100-44.864 100-100 100z m0-168c-37.496 0-68 30.504-68 68s30.504 68 68 68c37.488 0 68-30.504 68-68s-30.512-68-68-68zM464 759.584c-33.088 0-60-26.912-60-60s26.92-60 60-60c33.088 0 60 26.912 60 60s-26.912 60-60 60z m0-88c-15.44 0-28 12.56-28 28s12.56 28 28 28 28-12.56 28-28-12.56-28-28-28zM552 599.584c-28.672 0-52-23.328-52-52s23.328-52 52-52 52 23.328 52 52-23.328 52-52 52z m0-72c-11.032 0-20 8.968-20 20s8.968 20 20 20 20-8.968 20-20-8.968-20-20-20z"  /></svg>