<?xml version="1.0" standalone="no"?><!DOCTYPE svg PUBLIC "-//W3C//DTD SVG 1.1//EN" "http://www.w3.org/Graphics/SVG/1.1/DTD/svg11.dtd"><svg class="icon" width="200px" height="200.00px" viewBox="0 0 1024 1024" version="1.1" xmlns="http://www.w3.org/2000/svg"><path fill="#333333" d="M570.5 938h-326c-6.6 0-12-5.4-12-12V346c0-6.6 5.4-12 12-12h326c6.6 0 12 5.4 12 12v580c0 6.6-5.4 12-12 12z m-314-24h302V358h-302v556z"  /><path fill="#333333" d="M779.5 938h-209c-6.6 0-12-5.4-12-12V346c0-6.6 5.4-12 12-12h209c6.6 0 12 5.4 12 12v580c0 6.6-5.4 12-12 12z m-197-24h185V358h-185v556z"  /><path fill="#333333" d="M779.5 358h-209c-4.3 0-8.2-2.3-10.4-5.9s-2.2-8.2-0.1-11.9l99-176c2.1-3.7 5.9-6 10.2-6.1 4.2-0.1 8.2 2 10.5 5.6l110 176c2.3 3.7 2.4 8.4 0.3 12.2-2.1 3.7-6.1 6.1-10.5 6.1zM591 334h166.8L670 193.5 591 334z"  /><path fill="#333333" d="M570.5 358h-326c-4.5 0-8.6-2.5-10.6-6.4-2.1-4-1.8-8.7 0.8-12.4l122-176c2.2-3.2 5.9-5.2 9.9-5.2h303c4.3 0 8.2 2.3 10.4 5.9s2.2 8.2 0.1 11.9l-99 176c-2.3 3.9-6.3 6.2-10.6 6.2z m-303.1-24h296.1L649 182H372.8L267.4 334z"  /><path fill="#333333" d="M669.5 182h-303c-6.6 0-12-5.4-12-12V98c0-6.6 5.4-12 12-12h303c6.6 0 12 5.4 12 12v72c0 6.6-5.4 12-12 12z m-291-24h279v-48h-279v48zM779.5 808h-209c-6.6 0-12-5.4-12-12V476c0-6.6 5.4-12 12-12h209c6.6 0 12 5.4 12 12v320c0 6.6-5.4 12-12 12z m-197-24h185V488h-185v296z"  /><path fill="#333333" d="M570.5 808h-326c-6.6 0-12-5.4-12-12V476c0-6.6 5.4-12 12-12h326c6.6 0 12 5.4 12 12v320c0 6.6-5.4 12-12 12z m-314-24h302V488h-302v296zM461.5 302c-24.3 0-44-19.7-44-44s19.7-44 44-44 44 19.7 44 44-19.7 44-44 44z m0-64c-11 0-20 9-20 20s9 20 20 20 20-9 20-20-9-20-20-20z"  /><path fill="#333333" d="M404.5 721m-48 0a48 48 0 1 0 96 0 48 48 0 1 0-96 0Z"  /><path fill="#333333" d="M501.5 590m-40 0a40 40 0 1 0 80 0 40 40 0 1 0-80 0Z"  /><path fill="#333333" d="M741.5 540m-40 0a40 40 0 1 0 80 0 40 40 0 1 0-80 0Z"  /><path fill="#333333" d="M415.5 603m-16 0a16 16 0 1 0 32 0 16 16 0 1 0-32 0Z"  /><path fill="#333333" d="M733.5 763m-16 0a16 16 0 1 0 32 0 16 16 0 1 0-32 0Z"  /><path fill="#333333" d="M509.5 746m-16 0a16 16 0 1 0 32 0 16 16 0 1 0-32 0Z"  /><path fill="#333333" d="M374.5 528m-24 0a24 24 0 1 0 48 0 24 24 0 1 0-48 0Z"  /><path fill="#333333" d="M650.5 721m-48 0a48 48 0 1 0 96 0 48 48 0 1 0-96 0Z"  /><path fill="#333333" d="M622.5 541m-16 0a16 16 0 1 0 32 0 16 16 0 1 0-32 0Z"  /><path fill="#333333" d="M682.5 628m-16 0a16 16 0 1 0 32 0 16 16 0 1 0-32 0Z"  /><path fill="#333333" d="M330.5 526c0 26.5-21.5 48-48 48s-49-21.5-49-48 22.5-48 49-48 48 21.5 48 48z"  /><path fill="#333333" d="M298.5 658m-16 0a16 16 0 1 0 32 0 16 16 0 1 0-32 0Z"  /></svg>