<?xml version="1.0" standalone="no"?><!DOCTYPE svg PUBLIC "-//W3C//DTD SVG 1.1//EN" "http://www.w3.org/Graphics/SVG/1.1/DTD/svg11.dtd"><svg class="icon" width="200px" height="200.00px" viewBox="0 0 1024 1024" version="1.1" xmlns="http://www.w3.org/2000/svg"><path fill="#333333" d="M982.4 675.2l8 17.6c-1.6-6.4-3.2-11.2-4.8-17.6h-3.2z"  /><path fill="#333333" d="M1009.6 406.4v-3.2c1.6-28.8-6.4-59.2-20.8-89.6-3.2-8-8-16-12.8-24-64-113.6-212.8-227.2-332.8-256-86.4-19.2-144-8-177.6 9.6-6.4-3.2-14.4-6.4-22.4-9.6-43.2-12.8-67.2 19.2-84.8 44.8-19.2 25.6-38.4 51.2-78.4 51.2-96 0-132.8 24-156.8 60.8-152 164.8-129.6 372.8-100.8 484.8 1.6 6.4 3.2 12.8 4.8 17.6 11.2 36.8 20.8 60.8 22.4 64l1.6 1.6c48 83.2 102.4 137.6 163.2 164.8 78.4 46.4 188.8 75.2 352 75.2 36.8 0 75.2-1.6 118.4-4.8 118.4-8 206.4-54.4 264-136 94.4-132.8 80-332.8 60.8-451.2zM564.8 891.2c-6.4 24-22.4 36.8-54.4 44.8-9.6 3.2-36.8-11.2-54.4-20.8-25.6-12.8-49.6-25.6-72-25.6-4.8 0-8 0-12.8 1.6-1.6 0-4.8 1.6-6.4 1.6-24 6.4-68.8 19.2-123.2-3.2-46.4-19.2-99.2-60.8-152-152-3.2-6.4-14.4-36.8-25.6-81.6-25.6-105.6-43.2-296 91.2-440l1.6-3.2c11.2-17.6 28.8-41.6 121.6-41.6 62.4 0 91.2-40 113.6-67.2 12.8-17.6 20.8-25.6 27.2-28.8 3.2-1.6 6.4-1.6 11.2 0 14.4 4.8 22.4 11.2 32 19.2 3.2 4.8 8 8 11.2 12.8 16 20.8 36.8 46.4 86.4 46.4 33.6 0 54.4-8 68.8-14.4 16-6.4 16-6.4 27.2 6.4 12.8 14.4 19.2 33.6 27.2 52.8 12.8 30.4 27.2 65.6 65.6 91.2 20.8 14.4 40 20.8 54.4 27.2 24 9.6 30.4 12.8 33.6 28.8v1.6c1.6 12.8-4.8 32-11.2 51.2-1.6 3.2-3.2 6.4-3.2 9.6-12.8 32-24 60.8-8 84.8 3.2 4.8 6.4 9.6 11.2 14.4 27.2 33.6 44.8 60.8 9.6 96-22.4 20.8-40 35.2-54.4 46.4-27.2 19.2-48 35.2-48 73.6 0 11.2 1.6 22.4 3.2 33.6 1.6 12.8 3.2 22.4 1.6 30.4-1.6 12.8-8 20.8-27.2 28.8-4.8 1.6-8 3.2-12.8 4.8-16 6.4-32 9.6-46.4 14.4-41.6 9.6-78.4 20.8-86.4 56zM912 835.2c-49.6 70.4-128 110.4-232 118.4-40 3.2-76.8 4.8-112 4.8 19.2-14.4 32-32 38.4-56 3.2-11.2 27.2-17.6 54.4-25.6 19.2-4.8 41.6-11.2 64-20.8 19.2-8 30.4-17.6 38.4-27.2 11.2 0 22.4 0 35.2 1.6 12.8 1.6 28.8 1.6 49.6 1.6 46.4 0 54.4-46.4 60.8-76.8 3.2-19.2 8-41.6 17.6-44.8 12.8-4.8 28.8-12.8 43.2-22.4-9.6 51.2-27.2 102.4-57.6 147.2z m60.8-212.8c-4.8 16-28.8 33.6-62.4 46.4-32 12.8-38.4 48-44.8 78.4-4.8 28.8-9.6 41.6-17.6 41.6-19.2 0-33.6-1.6-44.8-1.6-8 0-16-1.6-24-1.6 0-11.2-1.6-24-3.2-33.6-1.6-9.6-3.2-19.2-3.2-27.2 0-14.4 4.8-19.2 30.4-38.4 14.4-11.2 35.2-25.6 59.2-49.6 65.6-65.6 16-128-6.4-153.6-3.2-4.8-6.4-8-9.6-11.2-1.6-6.4 6.4-30.4 12.8-44.8 4.8-14.4 11.2-30.4 14.4-46.4 3.2-14.4 4.8-27.2 1.6-40 0-3.2-1.6-4.8-1.6-6.4-9.6-33.6-33.6-43.2-57.6-52.8-12.8-4.8-28.8-11.2-46.4-24-25.6-17.6-36.8-41.6-48-72-9.6-20.8-17.6-43.2-33.6-62.4-30.4-38.4-57.6-27.2-78.4-19.2-11.2 1.6-25.6 8-51.2 8-27.2 0-36.8-11.2-51.2-28.8-1.6-1.6-3.2-4.8-6.4-6.4 28.8-8 70.4-12.8 131.2 1.6 105.6 24 244.8 129.6 304 228.8 20.8 33.6 30.4 65.6 28.8 94.4v9.6c-3.2 36.8-6.4 62.4-8 84.8-6.4 49.6-9.6 72 12.8 108.8 4.8 8 4.8 12.8 3.2 17.6z"  /><path fill="#333333" d="M86.4 766.4S227.2 358.4 664 368c0 0-350.4 0-526.4 467.2 1.6 0-43.2-35.2-51.2-68.8z"  /><path fill="#333333" d="M156.8 662.4s-105.6-147.2 8-329.6c0 0-70.4 233.6 8 294.4l-16 35.2zM356.8 454.4s-17.6-172.8 131.2-243.2c0 0-123.2 96-96 225.6l-35.2 17.6zM288 548.8s131.2 147.2 377.6 78.4c0 0-184 112-393.6-43.2l16-35.2zM164.8 739.2c70.4 86.4 272 86.4 272 86.4-192-8-254.4-121.6-254.4-121.6l-17.6 35.2z"  /></svg>