<?xml version="1.0" standalone="no"?><!DOCTYPE svg PUBLIC "-//W3C//DTD SVG 1.1//EN" "http://www.w3.org/Graphics/SVG/1.1/DTD/svg11.dtd"><svg class="icon" width="200px" height="200.00px" viewBox="0 0 1024 1024" version="1.1" xmlns="http://www.w3.org/2000/svg"><path fill="#333333" d="M871 540.8c-9.4 0-17.1 7.6-17.1 17.1V839c0 50.2-40.8 91-91 91H281.7c-50.2 0-91-40.8-91-91V388.9c0-52.1 42.4-94.5 94.5-94.5 30.8 0 55.8-25 55.8-55.8v-2c0-31.9-25.9-57.8-57.8-57.8-13 0-23.6-10.6-23.6-23.6 0-13 10.6-23.6 23.6-23.6h478.2c13 0 23.6 10.6 23.6 23.6 0 13-10.6 23.6-23.6 23.6h-8.8c-27 0-48.9 22-48.9 49V258c0 20.1 16.3 36.4 36.4 36.4 62.8 0 113.9 51.1 113.9 113.9 0 9.4 7.6 17.1 17.1 17.1 9.4 0 17.1-7.6 17.1-17.1 0-81.6-66.4-148-148-148-1.3 0-2.3-1-2.3-2.3v-30.2c0-8.2 6.6-14.8 14.8-14.8h8.8c31.8 0 57.8-25.9 57.8-57.8s-25.9-57.8-57.8-57.8H283.1c-31.9 0-57.8 25.9-57.8 57.8s25.9 57.8 57.8 57.8c13 0 23.6 10.6 23.6 23.6v2c0 11.9-9.7 21.7-21.6 21.7-70.9 0-128.6 57.7-128.6 128.6V839c0 69 56.2 125.2 125.2 125.2h481.2c69 0 125.2-56.2 125.2-125.2V557.9c-0.1-9.4-7.7-17.1-17.1-17.1z"  /><path fill="#333333" d="M396.8 459.5c-10.5-0.4-19.1 6.4-21.7 16.3l-29.2 110.1-29.7-112.1c-2.5-9.6-11.2-16.3-21.2-16.3-9.9 0-18.6 6.7-21.3 17.1L236 649.8c-2 9.2 3.9 18.3 13.1 20.3 1.2 0.3 2.4 0.4 3.6 0.4 7.9 0 14.9-5.5 16.7-13.5l27-125.2 26.2 98.7c2.9 10.8 12.3 18.1 23.5 18.1s20.6-7.3 23.5-18.1l24.4-92.2 20.7 117.4c1.6 9.3 10.5 15.5 19.8 13.8 9.3-1.6 15.5-10.5 13.8-19.8l-30.4-172.9c-2.3-9.9-10.9-17-21.1-17.3zM481.5 472.1v180.4c0 9.4 7.6 17.1 17.1 17.1 9.4 0 17.1-7.6 17.1-17.1V472.1c0-9.4-7.6-17.1-17.1-17.1-9.5 0-17.1 7.7-17.1 17.1zM568.6 455c-9.4 0-17.1 7.6-17.1 17.1v174c0 9.4 7.6 17.1 17.1 17.1h61c9.4 0 17.1-7.6 17.1-17.1s-7.6-17.1-17.1-17.1h-44V472.1c0.1-9.4-7.6-17.1-17-17.1zM674.3 455c-9.4 0-17.1 7.6-17.1 17.1v174c0 9.4 7.6 17.1 17.1 17.1 9.4 0 17.1-7.6 17.1-17.1v-64.8c0.7 0.9 1.5 1.7 2.4 2.5l80.2 73.5c3.3 3 7.4 4.5 11.5 4.5 4.6 0 9.2-1.9 12.6-5.5 6.4-6.9 5.9-17.7-1.1-24.1l-76.7-70.3 67.7-59c7.1-6.2 7.8-17 1.7-24.1-6.2-7.1-17-7.9-24.1-1.7l-71.2 62c-1.1 0.9-2.1 1.9-3 3v-70c0-9.4-7.7-17.1-17.1-17.1z"  /></svg>