<?xml version="1.0" standalone="no"?><!DOCTYPE svg PUBLIC "-//W3C//DTD SVG 1.1//EN" "http://www.w3.org/Graphics/SVG/1.1/DTD/svg11.dtd"><svg class="icon" width="200px" height="200.00px" viewBox="0 0 1024 1024" version="1.1" xmlns="http://www.w3.org/2000/svg"><path fill="#333333" d="M331.753244 215.438222l1.188978-17.698133 15.587556 8.465067c8.914489 4.835556 15.081244 5.802667 18.898489 4.113066 75.320889-28.455822 162.759111 5.626311 205.937777 80.423822 12.043378 20.861156 19.000889 49.834667 21.185423 87.000178a45.511111 45.511111 0 0 0 27.721955 39.253334c67.390578 28.461511 112.469333 61.895111 134.957511 100.841244 61.713067 106.882844 31.510756 240.253156-68.073244 297.745067-99.584 57.4976-230.183822 16.969956-291.896889-89.918578-22.482489-38.946133-28.893867-94.702933-19.854222-167.298845a45.511111 45.511111 0 0 0-20.127289-43.633777c-31.095467-20.48-52.707556-40.988444-64.750933-61.8496-43.144533-74.729244-29.001956-167.384178 32.642844-218.026667 3.561244-3.390578 5.933511-9.699556 6.582044-19.410489z m20.184178 16.725334c-2.315378 8.078222-6.144 14.677333-11.605333 19.666488-53.504 43.758933-65.865956 124.2624-28.103111 189.673245 10.018133 17.351111 29.178311 35.527111 57.565866 54.2208a68.266667 68.266667 0 0 1 30.196623 65.450667c-8.487822 68.124444-2.616889 119.170844 16.981333 153.110755 55.614578 96.335644 172.470044 132.590933 260.807111 81.590045 88.337067-51.000889 115.364978-170.325333 59.744711-266.660978-19.592533-33.9456-60.871111-64.546133-124.103111-91.261156a68.266667 68.266667 0 0 1-41.585778-58.88c-1.991111-33.928533-8.163556-59.608178-18.176-76.9536-37.694578-65.285689-113.368178-94.850844-177.3568-70.849422-7.395556 3.1744-15.553422 3.356444-24.365511 0.887467z m285.696 530.335288a11.377778 11.377778 0 1 1 2.742045 22.584889c-20.024889 2.434844-40.476444 1.444978-60.575289-2.861511a11.377778 11.377778 0 1 1 4.767289-22.249244c17.658311 3.783111 35.572622 4.647822 53.071644 2.525866z m-102.934755-21.651911a11.377778 11.377778 0 0 1-11.264 19.768889 207.36 207.36 0 0 1-47.382756-37.12 11.377778 11.377778 0 1 1 16.475022-15.701333 184.604444 184.604444 0 0 0 42.171734 33.052444z m-73.085156-76.413155a11.377778 11.377778 0 0 1-20.491378 9.892978c-8.004267-16.583111-13.141333-36.118756-15.485155-58.578489a11.377778 11.377778 0 0 1 22.6304-2.360889c2.087822 19.979378 6.559289 36.977778 13.346133 51.0464z m-13.636267-105.870222a11.377778 11.377778 0 1 1-22.687288-1.706667c0.739556-9.824711 1.831822-20.053333 3.293866-30.674489a27.448889 27.448889 0 0 0-4.027733-18.517333 11.377778 11.377778 0 1 1 19.194311-12.219734 50.204444 50.204444 0 0 1 7.378489 33.837511 479.431111 479.431111 0 0 0-3.151645 29.280712z m-50.631111-101.051734a11.377778 11.377778 0 1 1-14.825244 17.265778c-13.312-11.434667-23.381333-22.966044-30.134045-34.6624a170.075022 170.075022 0 0 1-7.259022-14.040178 11.377778 11.377778 0 0 1 20.679111-9.500444c1.8944 4.130133 3.9936 8.186311 6.286223 12.162844 5.358933 9.284267 13.767111 18.904178 25.258666 28.7744z m-44.316444-91.847111a11.377778 11.377778 0 1 1-22.715733 1.302756c-1.194667-20.792889 1.695289-41.403733 8.465066-60.512711a11.377778 11.377778 0 1 1 21.447111 7.594666c-5.745778 16.241778-8.214756 33.826133-7.190755 51.615289z m316.051911 378.680889a160.898844 160.898844 0 0 0 24.348444-47.223467 11.377778 11.377778 0 0 1 21.651912 6.997334 183.643022 183.643022 0 0 1-27.807289 53.890844 11.377778 11.377778 0 0 1-18.193067-13.664711z m32.711111-99.976533a184.604444 184.604444 0 0 0-7.532089-53.048889 11.377778 11.377778 0 1 1 21.833956-6.411378 207.36 207.36 0 0 1 8.459378 59.591111 11.377778 11.377778 0 0 1-22.755556-0.130844z m-29.627733-101.501156c-8.783644-12.908089-21.276444-25.281422-37.535289-37.074489a11.377778 11.377778 0 1 1 13.368889-18.420622c18.272711 13.255111 32.620089 27.477333 42.979555 42.695111a11.377778 11.377778 0 0 1-18.813155 12.8z m-84.866845-64.739555a479.431111 479.431111 0 0 0-26.9312-11.918223 50.204444 50.204444 0 0 1-25.617066-23.301689 11.377778 11.377778 0 0 1 20.178489-10.518755 27.448889 27.448889 0 0 0 14.0288 12.7488 502.135467 502.135467 0 0 1 28.2112 12.487111 11.377778 11.377778 0 0 1-9.870223 20.502756z m-62.196622-94.378667c-2.798933-14.882133-6.934756-26.965333-12.293689-36.255289a147.319467 147.319467 0 0 0-7.384178-11.525689 11.377778 11.377778 0 0 1 18.562845-13.1584 170.075022 170.075022 0 0 1 8.527644 13.312c6.752711 11.696356 11.702044 26.168889 14.9504 43.423289a11.377778 11.377778 0 0 1-22.357333 4.209778zM467.712 299.457422c-14.893511-9.7792-31.351467-16.440889-48.298667-19.575466a11.377778 11.377778 0 1 1 4.152889-22.3744c19.933867 3.697778 39.224889 11.497244 56.638578 22.926222a11.377778 11.377778 0 1 1-12.4928 19.023644z m-88.189156-1.513244a11.377778 11.377778 0 1 1 19.729067-11.337956l28.342045 49.328356a11.377778 11.377778 0 0 1-19.729067 11.337955l-28.342045-49.328355z m56.6784 98.656711a11.377778 11.377778 0 1 1 19.729067-11.337956l28.342045 49.328356a11.377778 11.377778 0 0 1-19.729067 11.337955l-28.342045-49.328355z m56.6784 98.656711a11.377778 11.377778 0 1 1 19.729067-11.337956l28.342045 49.322667a11.377778 11.377778 0 1 1-19.729067 11.343645l-28.342045-49.328356z m56.6784 98.651022a11.377778 11.377778 0 0 1 19.729067-11.332266l28.342045 49.322666a11.377778 11.377778 0 1 1-19.729067 11.337956l-28.342045-49.322667z m250.134756-411.392l-5.688889-9.853155a11.377778 11.377778 0 0 1 19.706311-11.377778l5.688889 9.853155 9.853156-5.688888a11.377778 11.377778 0 0 1 11.377777 19.706311l-9.853155 5.688889 5.688889 9.853155a11.377778 11.377778 0 0 1-19.706311 11.377778l-5.688889-9.853156-9.858845 5.688889a11.377778 11.377778 0 0 1-11.377777-19.706311l9.858844-5.688889z m-193.456356 510.048711a11.377778 11.377778 0 0 1 19.729067-11.332266l27.209956 47.348622a11.377778 11.377778 0 0 1-19.734756 11.337955l-27.204267-47.354311z m-416.028444 163.714845a34.133333 34.133333 0 1 1-34.133333-59.118934 34.133333 34.133333 0 0 1 34.133333 59.118934z m-11.377778-19.706311a11.377778 11.377778 0 1 0-11.377778-19.706311 11.377778 11.377778 0 0 0 11.377778 19.706311z"  /></svg>