<?xml version="1.0" standalone="no"?><!DOCTYPE svg PUBLIC "-//W3C//DTD SVG 1.1//EN" "http://www.w3.org/Graphics/SVG/1.1/DTD/svg11.dtd"><svg class="icon" width="200px" height="200.00px" viewBox="0 0 1024 1024" version="1.1" xmlns="http://www.w3.org/2000/svg"><path fill="#333333" d="M49.434483 28.248276V14.124138a14.124138 14.124138 0 0 1 28.248276 0v14.124138h14.124138a14.124138 14.124138 0 0 1 0 28.248276H77.682759v14.124138a14.124138 14.124138 0 0 1-28.248276 0V56.496552H35.310345a14.124138 14.124138 0 0 1 0-28.248276zM960.441379 1024a42.372414 42.372414 0 1 1 42.372414-42.372414 42.372414 42.372414 0 0 1-42.372414 42.372414z m0-56.496552a14.124138 14.124138 0 1 0 14.124138 14.124138 14.124138 14.124138 0 0 0-14.124138-14.124138z"  /><path fill="#333333" d="M480.22069 953.37931c-124.857379 0-222.667034-81.143172-222.878897-184.743724-13.559172-247.172414-13.488552-419.345655 0-512.07062 17.302069-116.665379 90.818207-144.136828 134.744276-160.591449a121.750069 121.750069 0 0 0 23.657931-10.381241A91.241931 91.241931 0 0 0 451.972414 34.392276c2.612966-8.050759 6.426483-20.268138 19.632552-20.268138 10.663724 0 17.090207 8.333241 29.872551 24.999724A323.584 323.584 0 0 0 550.841379 92.513103a181.495172 181.495172 0 0 0 31.496828 19.067587c39.194483 20.550621 87.993379 46.04469 112.004414 143.713103 20.550621 83.403034 24.576 251.409655 12.499862 513.553655C706.56 872.024276 607.337931 953.37931 480.22069 953.37931zM475.912828 52.118069a117.865931 117.865931 0 0 1-43.361104 56.496552 132.343172 132.343172 0 0 1-30.578758 14.124138c-40.536276 15.183448-101.835034 38.064552-116.524138 138.204689-13.34731 90.959448-13.34731 261.296552 0 506.774069v0.776828C285.590069 856.205241 371.041103 925.131034 480.22069 925.131034c111.086345 0 198.091034-68.925793 198.091034-156.919172 11.864276-256.423724 7.909517-426.548966-11.652414-506.209103-21.186207-85.309793-61.722483-106.566621-97.668413-125.351725a200.562759 200.562759 0 0 1-36.440276-22.386758A350.278621 350.278621 0 0 1 479.232 56.496552z"  /><path fill="#333333" d="M535.022345 947.659034a14.194759 14.194759 0 0 1-2.754207-28.248275c16.595862-3.319172 32.697379-18.573241 41.94869-39.688828A112.993103 112.993103 0 0 0 564.965517 776.262621c-47.315862-78.318345-34.462897-343.07531 0-398.30069 15.607172-24.929103 40.536276-37.146483 62.569931-47.951448 31.77931-15.607172 46.892138-24.364138 42.372414-52.400552a14.124138 14.124138 0 1 1 27.895172-4.378483c7.697655 49.858207-28.742621 67.725241-58.050206 82.131862-19.49131 9.604414-39.688828 19.49131-50.988138 37.570207-29.73131 47.457103-41.736828 299.502345 0 368.710621A141.806345 141.806345 0 0 1 600.275862 891.374345c-13.135448 29.872552-36.440276 50.776276-62.287448 56.002207a12.782345 12.782345 0 0 1-2.966069 0.282482zM432.692966 948.930207a12.146759 12.146759 0 0 1-2.754207 0c-30.649379-6.144-60.098207-32.132414-75.069793-66.171586a122.385655 122.385655 0 0 1 8.827586-115.323587c42.372414-69.914483 30.155034-324.431448 0-372.382896-12.005517-19.279448-31.355586-31.991172-50.14069-44.349793C284.460138 331.211034 254.234483 311.296 254.234483 268.358621a14.124138 14.124138 0 0 1 28.248276 0c0 26.412138 17.725793 39.406345 46.680275 58.473931 20.268138 13.34731 43.290483 28.248276 58.544552 52.894896 34.957241 55.790345 47.951448 323.019034 0 402.043586a94.702345 94.702345 0 0 0-7.062069 89.335173c11.22869 25.494069 33.191724 45.550345 54.731035 49.858207a14.194759 14.194759 0 0 1-2.754207 28.248276zM473.158621 946.317241a7.062069 7.062069 0 0 1-7.062069-7.062069V42.372414a7.062069 7.062069 0 0 1 14.124138 0v896.882758a7.062069 7.062069 0 0 1-7.062069 7.062069z"  /></svg>