<?xml version="1.0" standalone="no"?><!DOCTYPE svg PUBLIC "-//W3C//DTD SVG 1.1//EN" "http://www.w3.org/Graphics/SVG/1.1/DTD/svg11.dtd"><svg class="icon" width="200px" height="200.00px" viewBox="0 0 1024 1024" version="1.1" xmlns="http://www.w3.org/2000/svg"><path fill="#333333" d="M941.4 575.8c-35.1-66-116.2-63.2-181.3-55.8-33.7 3.7-68.3 10.1-100.1 22.6 29.5-46.1 47.5-95.5 50.7-157.3 4.2-78.9 9.7-178-48.4-239.8-23.5-25.4-54.9-37.4-89-41-37.4-3.7-84.9-5.1-119 12.9-71.5 37.8-103.3 145.3-120.8 218.2v0.9C286 392.7 231.6 427.3 162 450.8c-55.3 18.4-93.2 53-99.6 113.5-0.3 3-0.5 6.1-0.6 9.1V586c1.9 49.5 25.4 104.2 58.7 138.3 45.7 47 124.5 52.6 185.9 52.6 19.8 0 19.8-31.4 0-30.9-61.4 0-136.6-1.5-175.8-57.2-33.7-47.5-58.1-121.3-18.9-172.5 31.4-40.6 97.4-44.7 141.2-69.6 21.2-12.5 40.6-26.8 59-42.9-8.3 16.1-10.1 33.7 0.9 48-12.5 8.3-24.4 16.1-36.9 24-17.5 10.6-33.2 14.3-54 14.3-19.8 0-19.8 29.4 0 28.9 20.3 0 39.2-1.8 57.2-11.5 20.8-10.6 40.1-23.4 60-36.3 2.8-1.8 4.1-3.7 5.5-6 12.9-0.5 26.8-6 36.4-13.4 20.3-15.2 28.6-39.2 28.6-63.7 1.8-0.9 3.7-2.8 5.1-4.6 19.8-27.7 46-53.5 52.4-88.1 3.7-19.4-24.3-28.1-28-8.3-4.6 25.8-24.4 47-41.1 67.8-3.2-4.6-9.2-8.3-16.1-6.9-8.3 1.4-17.5 5.1-27.2 11.1 1.8-1.8 3.2-4.2 5.1-6 2.3-2.8 3.2-5.5 3.7-8.8 0-0.5 0.5-0.5 0.5-0.9 14.8-61.8 39.6-155 95.4-193.3 27.2-18.9 69.3-18.5 102-16.7 42.4 2.8 75.6 18.9 96.9 56.7 32.7 58.1 27.3 143.5 22.2 208.1-6.9 79.3-44.4 134.2-95.6 191.4-47.5-13.8-98.7-24.9-146.2-4.6-40.1 17.1-63.6 54.4-67.8 97.3-9.2 99.7 77.5 175.3 165.6 200.7 102.9 29.5 232.9 26.3 320.1-41.5 38.7-30 77.9-66.9 91.8-115.3 13.4-47 18.4-99.6-2.3-144.8-1.4-2.4-2.8-4.2-4.7-5.6zM378.7 381.6c2.2 1.1 3.8 7.7 2.8 20.4-0.7 8.2-5.5 13-9.6 19.5-0.9 1.5-1.1 3.3-2.4 4.5-8.9 7.4-33.4 17-31.3-1.9 1.8-17.6 19.8-53.1 40.5-42.5z m451.6 441h1c-69.6 50.3-167 53.6-249.1 39.7-75.2-12.9-155-54.5-176.2-133.8-12.5-46.6 2.3-102 51.7-118.6 42.9-14.3 88.1 1 129.6 13 2.8 0.9 5.5-0.1 7.4-0.5 3.7 0 7.4-1.4 10.6-5.1 35.1-42.4 87.6-56.7 140.7-64 57.7-8.3 140.7-20.8 171.1 42.4 0.9 1.8 3.3 2.7 4.7 3.6 36.3 84.8-25.1 175.3-91.5 223.3z"  /><path fill="#333333" d="M557.2 661.6c-15.2-2.3-27.2-8.3-37.4-20.3-12.9-15.2-35.1 4.9-22.1 20.1 12.9 15.2 31.4 25.4 51.2 28.1 8.3 0.9 16.6 0.2 18.9-9.1 2.3-6.8-2.3-17.4-10.6-18.8zM688.2 637.1c-27.2 17.1-64.1 18.9-95 24.9-19.8 3.7-11.5 32.7 8.3 29 34.1-6.5 72.4-9.2 102.4-27.7 17.1-11 1.4-36.8-15.7-26.2z"  /><path fill="#333333" d="M752.8 606.7c-8.3 5.5-16.6 9.7-26.3 12.5-19.4 5.5-11.1 33.5 8.3 28 12-3.2 23.5-8.8 33.7-15.7 6.9-4.6 10.1-11.4 5.5-19.2-4.1-6.5-14.3-10.2-21.2-5.6z"  /></svg>